<svg xmlns="http://www.w3.org/2000/svg" viewBox="0 0 100 100">
  <circle cx="50" cy="50" r="48" fill="white" stroke="#222" stroke-width="3"/>
  <path d="M50 4 A46 46 0 0 1 96 50" fill="none" stroke="#222" stroke-width="2"/>
  <path d="M50 4 A46 46 0 0 0 4 50" fill="none" stroke="#222" stroke-width="2"/>
  <path d="M50 96 A46 46 0 0 1 4 50" fill="none" stroke="#222" stroke-width="2"/>
  <path d="M50 96 A46 46 0 0 0 96 50" fill="none" stroke="#222" stroke-width="2"/>
  <polygon points="50,12 56,36 44,36" fill="#222"/>
  <polygon points="88,50 64,56 64,44" fill="#222"/>
  <polygon points="12,50 36,56 36,44" fill="#222"/>
  <polygon points="50,88 56,64 44,64" fill="#222"/>
  <polygon points="22,22 42,38 36,44" fill="#222"/>
  <polygon points="78,22 58,38 64,44" fill="#222"/>
  <polygon points="22,78 42,62 36,56" fill="#222"/>
  <polygon points="78,78 58,62 64,56" fill="#222"/>
</svg>
